<svg version="1.1" id="Layer_1" xmlns="http://www.w3.org/2000/svg" xmlns:xlink="http://www.w3.org/1999/xlink" x="0px" y="0px" viewBox="0 0 613.7 234" enable-background="new 0 0 613.7 234" xml:space="preserve">
<g>
	<path fill="#FFFFFF" d="M280.9,121.3v-0.2c0-20.1,15.8-36.5,37.6-36.5s37.4,16.2,37.4,36.3v0.2c0,20.1-15.8,36.5-37.6,36.5
		S280.9,141.3,280.9,121.3z M339.7,121.3v-0.2c0-12.1-8.9-22.2-21.4-22.2s-21.2,9.9-21.2,22v0.2c0,12.1,8.9,22.2,21.4,22.2
		C331,143.3,339.7,133.4,339.7,121.3z" data-darkreader-inline-fill="" style="--darkreader-inline-fill:#ffffff;"></path>
	<path fill="#FFFFFF" d="M379.8,85.8h15.5v56.5h35.2v14.1h-50.7V85.8z" data-darkreader-inline-fill="" style="--darkreader-inline-fill:#ffffff;"></path>
	<path fill="#FFFFFF" d="M479.5,85.3h14.3l30.3,71.1h-16.2l-6.5-15.8h-29.9l-6.5,15.8h-15.8L479.5,85.3z M495.9,126.8l-9.4-22.9
		l-9.4,22.9H495.9z" data-darkreader-inline-fill="" style="--darkreader-inline-fill:#ffffff;"></path>
	<path fill="#FFFFFF" d="M543.1,85.8h16.7l18.6,29.9L597,85.8h16.7v70.6h-15.4v-46.1l-19.9,30.2H578l-19.7-29.9v45.8h-15.2V85.8z" data-darkreader-inline-fill="" style="--darkreader-inline-fill:#ffffff;"></path>
	<g>
		<path fill="#1C8F9A" d="M229.2,83.7c-0.6-2-1.2-4-1.9-5.9c-0.5-1.5-1.1-2.9-1.7-4.4c-0.2-0.5-0.4-1-0.6-1.5
			c-0.2-0.5-0.4-1-0.6-1.5c-3.4-7.7-7.6-15.2-12.8-22.3c-0.3-0.4-0.6-0.9-1-1.3c-1-1.3-2-2.6-3.1-3.9c-0.5-0.6-1-1.3-1.6-1.9
			c-0.5-0.6-1.1-1.2-1.6-1.9c0.4,10.9,0.8,21.6,1.1,29.2c0,0.5,0,0.9,0,1.3c0,0.2,0,0.4,0,0.6c0.1,2.5,0.2,4.6,0.2,6.1
			c0.1,1.8,0.1,2.9,0.1,3c0,0,0,0,0,0h0l25.6,13.2v0C230.8,89.7,230.1,86.7,229.2,83.7z" data-darkreader-inline-fill="" style="--darkreader-inline-fill:#81dfe8;"></path>
		<path fill="#FFFFFF" d="M176.8,118.8c0,0.4,0,0.9-0.1,1.3c0,0.4,0,0.7-0.1,1.1c0,0.3,0,0.6-0.1,0.9c-0.1,0.7-0.1,1.5-0.2,2.2
			c0,0.4-0.1,0.8-0.2,1.2c0,0.2,0,0.4-0.1,0.6c-0.1,0.6-0.2,1.1-0.3,1.7c-0.1,0.6-0.2,1.2-0.4,1.8c-0.1,0.6-0.3,1.2-0.4,1.8
			c-0.1,0.6-0.3,1.2-0.5,1.8L176.8,118.8L176.8,118.8z" data-darkreader-inline-fill="" style="--darkreader-inline-fill:#ffffff;"></path>
		<path fill="#8CD0D3" d="M209.8,188.3c-4.2,5.5-8.9,10.6-14.1,15.3c-1.6,1.5-3.3,2.9-5,4.3L74.9,169.4l5.3-5.3c0,0,0,0,0.1,0.1
			c0.3,0.2,0.6,0.5,0.9,0.7c0.4,0.3,0.8,0.6,1.2,0.9c0.4,0.3,0.9,0.6,1.3,0.9c0.4,0.3,0.7,0.5,1.1,0.7c0.4,0.3,0.9,0.6,1.3,0.8
			c0.4,0.2,0.7,0.4,1.1,0.6c0.2,0.1,0.4,0.2,0.6,0.4c0.3,0.2,0.6,0.3,0.9,0.5c0.7,0.4,1.5,0.8,2.2,1.1c0.7,0.4,1.5,0.7,2.2,1
			c0.4,0.2,0.8,0.3,1.1,0.5c0.4,0.2,0.8,0.3,1.1,0.5c4.2,1.6,8.6,2.8,13.1,3.4c0.4,0.1,0.8,0.1,1.2,0.2c0.8,0.1,1.6,0.2,2.4,0.2
			c0.3,0,0.7,0.1,1,0.1c0.8,0.1,1.6,0.1,2.4,0.1c0.5,0,0.9,0,1.4,0h0.1c0.5,0,1,0,1.4,0c0.5,0,1.1,0,1.6-0.1c0.4,0,0.9-0.1,1.3-0.1
			c0.7-0.1,1.3-0.1,2-0.2c0.4,0,0.7-0.1,1.1-0.1c0.8-0.1,1.6-0.2,2.3-0.3c1-0.2,2-0.4,3-0.6c0.4-0.1,0.8-0.2,1.1-0.3
			c0.4-0.1,0.8-0.2,1.2-0.3c0.8-0.2,1.5-0.4,2.3-0.7c0.4-0.1,0.8-0.2,1.1-0.4s0.8-0.2,1.1-0.4c0.4-0.1,0.8-0.3,1.1-0.4
			c1.1-0.4,2.2-0.9,3.3-1.4c1-0.4,2-0.9,2.9-1.4c0.1,0,0.1-0.1,0.2-0.1c2.9-1.5,5.8-3.3,8.6-5.4c0.3-0.2,0.5-0.4,0.8-0.6
			c1.2-0.9,2.3-1.8,3.3-2.8c0.4-0.4,0.9-0.8,1.3-1.2c0.1-0.1,0.2-0.2,0.4-0.4c0.4-0.4,0.7-0.7,1.1-1.1c0.2-0.2,0.4-0.4,0.6-0.6
			c0.3-0.3,0.7-0.7,1-1.1c0.3-0.3,0.6-0.7,0.9-1c0,0,0-0.1,0.1-0.1c0.3-0.4,0.6-0.7,0.9-1.1c0.3-0.4,0.6-0.7,0.9-1.1
			c0.2-0.3,0.4-0.6,0.7-0.9c0.1-0.1,0.2-0.3,0.3-0.4c0.2-0.3,0.4-0.6,0.6-0.9c0.3-0.5,0.6-0.9,1-1.4c0.3-0.5,0.7-1,1-1.5
			c0.1-0.1,0.1-0.2,0.2-0.4c0.3-0.5,0.7-1.1,1-1.6c0,0,0-0.1,0.1-0.1c0.3-0.6,0.6-1.1,0.9-1.7c0.3-0.6,0.6-1.2,0.9-1.8
			c0.6-1.2,1.1-2.4,1.6-3.7c0-0.1,0.1-0.1,0.1-0.2c0.2-0.6,0.5-1.2,0.7-1.8v0l0,0l0,0l0.6,0.9v0L209.8,188.3L209.8,188.3z" data-darkreader-inline-fill="" style="--darkreader-inline-fill:#215557;"></path>
		<path fill="#41B3B4" d="M74.9,169.4l115.7,38.5c-1.1,0.9-2.3,1.8-3.5,2.7c-18.1,13.6-38.9,21.1-60,22.9l0,0L74.9,169.4z" data-darkreader-inline-fill="" style="--darkreader-inline-fill:#2b7778;"></path>
		<path fill="#1C8F9A" d="M81,228.3l-1.5-14.6l-4.6-44.2l52.3,64.1C111.6,234.9,95.8,233.1,81,228.3z" data-darkreader-inline-fill="" style="--darkreader-inline-fill:#81dfe8;"></path>
		<path fill="#8CD0D3" d="M23.4,187.1c-1.8-2.4-3.5-4.8-5.1-7.3l56.6-10.4l4.6,44.2l-37.9-7.2l0,0C34.9,200.8,28.8,194.4,23.4,187.1
			z" data-darkreader-inline-fill="" style="--darkreader-inline-fill:#8cd0d3;"></path>
		<path fill="#41B3B4" d="M41.5,206.4l37.9,7.2l1.5,14.6C66.7,223.7,53.3,216.4,41.5,206.4z" data-darkreader-inline-fill="" style="--darkreader-inline-fill:#81d1d1;"></path>
		<path fill="#8CD0D3" d="M80.3,164.2l-5.4,5.2l-3.4-13.7c0.1,0.1,0.1,0.1,0.1,0.2l0,0c0.1,0.1,0.1,0.1,0.2,0.2
			c2.2,2.6,4.6,4.9,7.2,7c0.4,0.3,0.7,0.6,1.1,0.9C80.1,164.1,80.2,164.1,80.3,164.2C80.3,164.2,80.3,164.2,80.3,164.2z" data-darkreader-inline-fill="" style="--darkreader-inline-fill:#8cd0d3;"></path>
		<path fill="#8CD0D3" d="M186.1,57.6l-22,22.5l0,0c-0.2-0.3-0.4-0.5-0.6-0.8c-0.1-0.2-0.2-0.3-0.4-0.5c-0.3-0.3-0.5-0.7-0.8-1
			c-0.1-0.1-0.1-0.2-0.2-0.2c-0.2-0.3-0.5-0.6-0.7-0.8c-0.3-0.4-0.6-0.7-1-1.1c-0.3-0.4-0.6-0.7-1-1c-0.7-0.7-1.4-1.4-2.1-2
			c-0.7-0.7-1.4-1.3-2.2-1.9c-0.4-0.3-0.7-0.6-1.1-0.9c-0.4-0.3-0.8-0.6-1.1-0.9c-0.4-0.3-0.8-0.6-1.2-0.9c-0.4-0.3-0.7-0.5-1.1-0.8
			c-0.1,0-0.1-0.1-0.2-0.1c-0.4-0.3-0.7-0.5-1.1-0.7c-0.5-0.3-1-0.7-1.6-1c-0.3-0.2-0.6-0.4-0.9-0.5c-0.8-0.5-1.7-0.9-2.5-1.4
			c-0.5-0.2-0.9-0.5-1.4-0.7c-0.9-0.5-1.9-0.9-2.8-1.3c0,0-0.1,0-0.2-0.1c-0.5-0.2-0.9-0.4-1.4-0.5c-1.5-0.6-3-1.1-4.5-1.5
			c-3-0.9-6.1-1.5-9.2-1.9c-1-0.1-2.1-0.2-3.1-0.3c-0.4,0-0.9-0.1-1.3-0.1c-1.1-0.1-2.2-0.1-3.4-0.1h0c-0.5,0-1,0-1.4,0
			c-0.5,0-1.1,0-1.6,0.1c-0.4,0-0.9,0.1-1.3,0.1c-0.7,0-1.3,0.1-2,0.2c-0.4,0-0.7,0.1-1.1,0.1c-0.8,0.1-1.6,0.2-2.3,0.3
			c-1,0.2-2,0.4-3,0.6c-0.4,0.1-0.8,0.2-1.1,0.3c-0.4,0.1-0.8,0.2-1.2,0.3c-0.4,0.1-0.8,0.2-1.1,0.3c-0.3,0.1-0.6,0.2-0.9,0.3
			c-0.4,0.1-0.9,0.3-1.3,0.4c-0.4,0.1-0.7,0.2-1.1,0.4c-0.1,0-0.2,0-0.2,0.1c-0.3,0.1-0.6,0.2-1,0.4c-1.1,0.4-2.2,0.9-3.3,1.4
			c-4,1.8-8,4.1-11.7,6.8c-0.5,0.4-1,0.8-1.5,1.2c-0.5,0.4-1,0.8-1.5,1.2c-0.5,0.4-0.9,0.8-1.4,1.2c-0.4,0.3-0.7,0.6-1.1,1
			c-0.1,0.1-0.2,0.2-0.3,0.3L38.6,30.2c0.7-0.6,1.3-1.2,2-1.8c0.9-0.8,1.8-1.6,2.7-2.3c1.2-0.9,2.3-1.9,3.5-2.8
			c3.1-2.4,6.4-4.5,9.6-6.5v0L186.1,57.6z" data-darkreader-inline-fill="" style="--darkreader-inline-fill:#215557;"></path>
		<path fill="#41B3B4" d="M74.9,169.4l-56.6,10.4c-0.5-0.8-1-1.6-1.5-2.5s-1-1.7-1.5-2.5c-0.5-0.8-0.9-1.7-1.4-2.5
			c-0.5-0.8-0.9-1.7-1.3-2.5c-0.4-0.9-0.9-1.7-1.3-2.6c-0.4-0.8-0.8-1.6-1.1-2.4c-0.1-0.2-0.2-0.5-0.3-0.7c-0.3-0.7-0.6-1.4-0.9-2.1
			c-0.4-0.9-0.7-1.8-1.1-2.6l29.5-18.9l20.7-13.3c0,0.1,0,0.2,0.1,0.4c0.1,0.5,0.2,1,0.3,1.5c0.2,1,0.4,1.9,0.7,2.9
			c0.1,0.5,0.2,1,0.4,1.4c0.1,0.5,0.3,0.9,0.4,1.4c0.1,0.3,0.2,0.6,0.3,1c0.2,0.6,0.4,1.2,0.6,1.9c0.2,0.5,0.3,0.9,0.5,1.3
			c0.2,0.4,0.4,0.9,0.5,1.4c0.7,1.6,1.5,3.3,2.3,4.8c0.2,0.3,0.3,0.6,0.5,0.9c0.4,0.7,0.8,1.5,1.3,2.2c0.2,0.4,0.4,0.7,0.6,1
			c0.8,1.2,1.6,2.4,2.5,3.6c0.4,0.5,0.8,1,1.1,1.5c0.3,0.4,0.6,0.8,1,1.2c0.1,0.1,0.1,0.2,0.2,0.3c0.1,0.1,0.1,0.1,0.1,0.2l0,0
			L74.9,169.4z" data-darkreader-inline-fill="" style="--darkreader-inline-fill:#81d1d1;"></path>
		<path fill="#1C8F9A" d="M57.7,124.7l-30.5,6l-25.7,5.1h0c0-0.2-0.1-0.5-0.1-0.7c0-0.2-0.1-0.5-0.1-0.7c-0.1-0.7-0.2-1.4-0.3-2.1
			c0-0.2-0.1-0.3-0.1-0.5c-0.1-0.6-0.1-1.2-0.2-1.9c0-0.4-0.1-0.7-0.1-1.1c-0.1-0.8-0.1-1.6-0.2-2.3c0-0.4-0.1-0.8-0.1-1.3
			c0-0.6-0.1-1.2-0.1-1.8c0-0.2,0-0.4,0-0.6c-0.1-0.9-0.1-1.8-0.1-2.7c0-1,0-2,0-2.9v-0.2c0-0.8,0-1.6,0-2.4c0-0.2,0-0.5,0-0.7
			c0-0.2,0-0.5,0-0.8c0-0.4,0-0.9,0.1-1.3c0-0.4,0-0.8,0.1-1.2c0-0.5,0.1-1.1,0.1-1.6c1-14.1,4.5-27.9,10.4-40.9
			c0.2-0.5,0.5-1,0.7-1.5l0,0c0.2-0.5,0.5-1,0.7-1.5c0.4-0.7,0.7-1.5,1.1-2.2c0.3-0.6,0.6-1.1,0.9-1.7c0.1-0.2,0.2-0.3,0.3-0.5l0,0
			l42.8,54.4c0,0.1,0,0.2,0,0.3c-0.1,1.5,0,3.1,0.1,4.6c0,0.4,0,0.8,0.1,1.2c0,0.2,0,0.4,0,0.7c0.1,0.9,0.2,1.8,0.3,2.6
			C57.7,124.7,57.7,124.7,57.7,124.7z" data-darkreader-inline-fill="" style="--darkreader-inline-fill:#81dfe8;"></path>
		<path fill="#1C8F9A" d="M176.8,118.5c0.1-4-0.2-8.1-0.9-12.1c-0.1-0.5-0.2-1-0.3-1.5c-0.1-0.5-0.2-0.9-0.3-1.4
			c-0.1-0.5-0.2-1-0.4-1.4c-0.1-0.5-0.2-0.9-0.4-1.4c0,0,0,0,0-0.1c-0.1-0.5-0.3-0.9-0.4-1.4c-0.1-0.5-0.3-0.9-0.4-1.4
			c-0.6-1.8-1.3-3.6-2.1-5.4c-0.2-0.4-0.3-0.7-0.5-1.1c-0.8-1.7-1.7-3.4-2.7-5c-0.2-0.3-0.4-0.7-0.6-1c-0.9-1.4-1.8-2.8-2.9-4.2
			c-0.2-0.3-0.4-0.5-0.6-0.8c-0.1-0.1-0.1-0.2-0.2-0.2l0,0c-0.2-0.3-0.4-0.5-0.6-0.8c-0.1-0.2-0.2-0.3-0.4-0.5
			c-0.3-0.3-0.5-0.7-0.8-1c-0.1-0.1-0.1-0.2-0.2-0.2l24.1-20l-9.3,61.2C176.8,118.7,176.8,118.6,176.8,118.5z" data-darkreader-inline-fill="" style="--darkreader-inline-fill:#81dfe8;"></path>
		<path fill="#41B3B4" d="M174.6,133.1l0,0.1l-0.8,5.3v0l0,0l-0.6-0.9l0,0v0l0,0C173.7,136.1,174.2,134.6,174.6,133.1z" data-darkreader-inline-fill="" style="--darkreader-inline-fill:#81d1d1;"></path>
		<path fill="#41B3B4" d="M56.5,16.8C81,2,109.2-2.8,135.9,1.6l50.1,56.1L56.5,16.8z" data-darkreader-inline-fill="" style="--darkreader-inline-fill:#2b7778;"></path>
		<path fill="#8CD0D3" d="M205.9,79.5L136,1.6c25.7,4.2,50.1,17,68.4,37.6C205.2,59.7,205.9,79.5,205.9,79.5z" data-darkreader-inline-fill="" style="--darkreader-inline-fill:#8cd0d3;"></path>
		<polygon fill="#41B3B4" points="205.9,79.5 173.8,138.5 174.6,133.2 174.6,133.1 174.6,133 176.8,118.9 176.8,118.8 186.1,57.6 
			205.9,79.5 		" data-darkreader-inline-fill="" style="--darkreader-inline-fill:#81d1d1;"></polygon>
		<path fill="#41B3B4" d="M209.8,188.3l-36-49.8l59.8-11C231.6,149.3,223.5,170.4,209.8,188.3z" data-darkreader-inline-fill="" style="--darkreader-inline-fill:#81d1d1;"></path>
		<path fill="#8CD0D3" d="M173.8,138.5l32.1-58.9l25.6,13.2c2.4,11.5,3.1,23.2,2.1,34.7L173.8,138.5z" data-darkreader-inline-fill="" style="--darkreader-inline-fill:#8cd0d3;"></path>
		<path fill="#8CD0D3" d="M7.9,159.4c-3-7.7-5.1-15.6-6.4-23.6l25.7-5.1l30.5-6c0.1,0.8,0.2,1.6,0.4,2.5l-20.7,13.3L7.9,159.4z" data-darkreader-inline-fill="" style="--darkreader-inline-fill:#8cd0d3;"></path>
		<path fill="#41B3B4" d="M75.5,74c-0.2,0.2-0.4,0.4-0.5,0.5c-0.1,0.1-0.2,0.2-0.3,0.3c-0.3,0.3-0.6,0.6-0.9,0.9
			c-0.3,0.3-0.7,0.7-1,1.1c-0.6,0.7-1.2,1.4-1.8,2.1c-0.1,0.1-0.2,0.3-0.3,0.4c-1.8,2.1-3.3,4.4-4.7,6.7c-0.3,0.4-0.5,0.8-0.7,1.2
			c-0.2,0.4-0.5,0.8-0.7,1.2c-0.8,1.5-1.6,3.1-2.3,4.7c-0.2,0.4-0.3,0.7-0.5,1.1c0,0.1-0.1,0.1-0.1,0.2c-0.2,0.5-0.4,1-0.6,1.5
			c-0.7,2-1.4,4-1.9,6.1c0,0.1,0,0.1,0,0.2c-0.1,0.6-0.3,1.1-0.4,1.7c-0.1,0.6-0.3,1.1-0.4,1.7c-0.2,0.9-0.3,1.8-0.5,2.7
			c0,0,0,0.1,0,0.1c-0.1,0.4-0.1,0.9-0.2,1.3c-0.1,0.5-0.1,0.9-0.1,1.4c-0.1,0.9-0.2,1.8-0.2,2.8c0,0.5-0.1,0.9-0.1,1.4L14.4,60.7
			l0,0c4.8-8.8,10.8-17,17.9-24.4c0.6-0.6,1.1-1.2,1.7-1.8c0.1-0.1,0.2-0.2,0.4-0.4c0.5-0.5,1.1-1.1,1.6-1.6
			c0.2-0.2,0.4-0.4,0.6-0.6c0.5-0.5,0.9-0.9,1.4-1.3c0.2-0.2,0.3-0.3,0.5-0.5L75.5,74z" data-darkreader-inline-fill="" style="--darkreader-inline-fill:#81d1d1;"></path>
	</g>
	<g>
		<path fill="#FFFFFF" d="M59.1,102.1c0,0.1,0,0.1,0,0.2C59.1,102.2,59.1,102.1,59.1,102.1z" data-darkreader-inline-fill="" style="--darkreader-inline-fill:#ffffff;"></path>
		<path fill="#FFFFFF" d="M58.6,104.3c0-0.1,0.1-0.2,0.1-0.4c-0.1,0.6-0.3,1.1-0.4,1.7C58.4,105.2,58.5,104.7,58.6,104.3z" data-darkreader-inline-fill="" style="--darkreader-inline-fill:#ffffff;"></path>
		<path fill="#FFFFFF" d="M61,95.9c-0.7,2-1.4,4-1.9,6.1C59.7,100,60.3,97.9,61,95.9z" data-darkreader-inline-fill="" style="--darkreader-inline-fill:#ffffff;"></path>
		<path fill="#FFFFFF" d="M59.1,102.2c-0.1,0.6-0.3,1.1-0.4,1.7C58.8,103.3,58.9,102.8,59.1,102.2z" data-darkreader-inline-fill="" style="--darkreader-inline-fill:#ffffff;"></path>
		<path fill="#FFFFFF" d="M92.8,62.3c-4,1.8-8,4.1-11.7,6.8C84.8,66.4,88.7,64.1,92.8,62.3z" data-darkreader-inline-fill="" style="--darkreader-inline-fill:#ffffff;"></path>
		<path fill="#FFFFFF" d="M95.4,172.8c4.2,1.6,8.6,2.8,13.1,3.4C103.9,175.5,99.6,174.4,95.4,172.8z" data-darkreader-inline-fill="" style="--darkreader-inline-fill:#ffffff;"></path>
		<path fill="#FFFFFF" d="M107.2,58c-1,0.2-2,0.4-3,0.6C105.1,58.4,106.2,58.2,107.2,58z" data-darkreader-inline-fill="" style="--darkreader-inline-fill:#ffffff;"></path>
		<path fill="#FFFFFF" d="M124.8,57.7c3.1,0.4,6.2,1.1,9.2,1.9C131,58.8,127.9,58.1,124.8,57.7z" data-darkreader-inline-fill="" style="--darkreader-inline-fill:#ffffff;"></path>
		<path fill="#FFFFFF" d="M126.8,176c1-0.2,2-0.4,3-0.6C128.9,175.6,127.9,175.8,126.8,176z" data-darkreader-inline-fill="" style="--darkreader-inline-fill:#ffffff;"></path>
		<path fill="#FFFFFF" d="M134,59.7c1.5,0.4,3,0.9,4.5,1.5C137,60.6,135.5,60.1,134,59.7z" data-darkreader-inline-fill="" style="--darkreader-inline-fill:#ffffff;"></path>
		<path fill="#FFFFFF" d="M144.3,170.2c-0.1,0-0.1,0.1-0.2,0.1C144.2,170.3,144.2,170.2,144.3,170.2z" data-darkreader-inline-fill="" style="--darkreader-inline-fill:#ffffff;"></path>
		<path fill="#FFFFFF" d="M156.9,161.5c-3.8,3.4-8.1,6.4-12.7,8.7c2.9-1.5,5.8-3.3,8.6-5.4c0.3-0.2,0.5-0.4,0.8-0.6
			C154.8,163.4,155.9,162.4,156.9,161.5z" data-darkreader-inline-fill="" style="--darkreader-inline-fill:#ffffff;"></path>
		<path fill="#FFFFFF" d="M141.2,171.7c1-0.4,2-0.9,2.9-1.4C143.1,170.8,142.2,171.3,141.2,171.7z" data-darkreader-inline-fill="" style="--darkreader-inline-fill:#ffffff;"></path>
		<path fill="#FFFFFF" d="M163.4,79.3c0.2,0.3,0.4,0.5,0.6,0.8l0,0C163.8,79.9,163.6,79.6,163.4,79.3z" data-darkreader-inline-fill="" style="--darkreader-inline-fill:#ffffff;"></path>
		<path fill="#FFFFFF" d="M170.7,143.2c0.6-1.2,1.1-2.4,1.6-3.7C171.9,140.8,171.3,142,170.7,143.2z" data-darkreader-inline-fill="" style="--darkreader-inline-fill:#ffffff;"></path>
		<path fill="#FFFFFF" d="M176.8,118.9c0,0.4,0,0.8,0,1.2c0,0.4,0,0.7-0.1,1.1c0,0.3,0,0.6-0.1,0.9c-0.1,0.7-0.1,1.5-0.2,2.2
			c0,0.4-0.1,0.8-0.2,1.2c0,0.2,0,0.4-0.1,0.6c-0.1,0.6-0.2,1.1-0.3,1.7c-0.1,0.6-0.2,1.2-0.4,1.8c-0.1,0.6-0.3,1.2-0.4,1.8
			c-0.1,0.6-0.3,1.3-0.5,1.9c-0.4,1.5-0.9,3-1.4,4.4c0,0,0,0,0,0c-0.2,0.6-0.4,1.2-0.7,1.8c0.2-0.6,0.5-1.2,0.7-1.8v0l0,0
			c0.5-1.5,1-3,1.5-4.5l0,0L176.8,118.9z" data-darkreader-inline-fill="" style="--darkreader-inline-fill:#ffffff;"></path>
	</g>
	<linearGradient id="SVGID_1_" gradientUnits="userSpaceOnUse" x1="147.5986" y1="50.8675" x2="65.2717" y2="228.8535">
		<stop offset="0" style="stop-color:#FFFFFF"></stop>
		<stop offset="1" style="stop-color:#136F73"></stop>
	</linearGradient>
	<path opacity="0.2" fill="url(#SVGID_1_)" d="M234,114L234,114c0-0.9,0-1.7-0.1-2.5c0-0.2,0-0.4,0-0.6c0-0.1,0-0.2,0-0.3
		c0-0.9-0.1-1.7-0.2-2.5c0-0.1,0-0.1,0-0.1c-0.1-0.7-0.1-1.4-0.2-2.1c0-0.3,0-0.6-0.1-0.9c0-0.2,0-0.3-0.1-0.5
		c-0.1-0.7-0.1-1.4-0.2-2c-0.1-1.1-0.3-2.1-0.4-3.2c-0.1-0.6-0.2-1.2-0.3-1.8c0-0.1,0-0.3-0.1-0.4c-0.1-0.4-0.1-0.7-0.2-1.1
		c0,0,0-0.1,0-0.1c-0.1-0.6-0.2-1.3-0.4-1.9c-0.1-0.4-0.1-0.7-0.2-1c0,0,0,0,0,0c-0.6-3-1.4-6.1-2.3-9c-0.6-2-1.2-4-1.9-5.9
		c-0.5-1.5-1.1-2.9-1.7-4.4c-0.2-0.5-0.4-1-0.6-1.5c-0.2-0.5-0.4-1-0.6-1.5c-3.4-7.9-7.7-15.4-12.8-22.3c-0.3-0.4-0.6-0.9-1-1.3
		c-0.1-0.1-0.2-0.2-0.3-0.4c-0.4-0.5-0.7-1-1.1-1.5c-0.5-0.7-1.1-1.4-1.7-2.1c-0.5-0.6-1-1.3-1.6-1.9c-0.5-0.6-1.1-1.2-1.6-1.9
		c-0.6-0.6-1.1-1.3-1.7-1.9c-0.5-0.5-1-1.1-1.5-1.6c-0.5-0.6-1.1-1.1-1.6-1.6c-0.6-0.6-1.2-1.2-1.8-1.8c-0.6-0.6-1.2-1.1-1.8-1.7
		c-0.8-0.7-1.6-1.5-2.5-2.2c-1.4-1.2-2.8-2.3-4.2-3.5c-0.7-0.6-1.5-1.1-2.2-1.7s-1.5-1.1-2.3-1.7c-0.8-0.5-1.5-1.1-2.3-1.6
		c-0.8-0.5-1.6-1-2.4-1.6c-0.8-0.5-1.6-1-2.4-1.5c-0.6-0.4-1.2-0.7-1.8-1.1c-1.7-1-3.5-2-5.3-2.9c-0.6-0.3-1.2-0.6-1.8-0.9
		c-0.1-0.1-0.3-0.1-0.4-0.2c-0.7-0.3-1.4-0.7-2.1-1c-13-6.1-27.2-9.8-42.3-10.7c-0.8,0-1.6-0.1-2.4-0.1c-0.6,0-1.3-0.1-1.9-0.1
		c-0.9,0-1.7,0-2.5,0h-0.4c-1,0-1.9,0-2.9,0c-0.9,0-1.8,0.1-2.8,0.1c-0.2,0-0.4,0-0.6,0c-0.9,0-1.7,0.1-2.6,0.2c-1,0.1-2,0.2-3,0.3
		c-1,0.1-2,0.2-2.9,0.3c-2,0.2-3.9,0.5-5.8,0.9c0,0,0,0-0.1,0c-0.9,0.1-1.8,0.3-2.6,0.5c-0.1,0-0.1,0-0.2,0
		c-0.9,0.2-1.8,0.4-2.8,0.6c-0.1,0-0.1,0-0.2,0c-0.9,0.2-1.8,0.4-2.6,0.6c-1.1,0.3-2.1,0.6-3.2,0.9c-0.5,0.1-1.1,0.3-1.6,0.5
		c-0.6,0.2-1.3,0.4-1.9,0.6c-0.4,0.1-0.9,0.3-1.3,0.4c-0.3,0.1-0.5,0.2-0.8,0.3c-0.4,0.1-0.8,0.3-1.2,0.4c-1.1,0.4-2.1,0.8-3.1,1.2
		l-1.5,0.6c-0.2,0.1-0.4,0.2-0.6,0.3c-1.8,0.7-3.5,1.5-5.2,2.3c-0.6,0.3-1.1,0.5-1.7,0.8c-0.1,0-0.2,0.1-0.4,0.2
		c-0.5,0.3-1,0.5-1.6,0.8c-0.6,0.3-1.2,0.6-1.8,1c-0.6,0.3-1.2,0.6-1.8,1c-0.6,0.3-1.2,0.7-1.8,1c-0.6,0.3-1.2,0.7-1.8,1.1
		c-0.6,0.4-1.2,0.7-1.7,1.1c-0.3,0.2-0.6,0.4-0.9,0.5c-0.7,0.4-1.3,0.9-2,1.3c-0.2,0.1-0.4,0.3-0.6,0.4c-2.7,1.9-5.4,3.8-7.9,5.9
		c-0.9,0.7-1.8,1.5-2.7,2.3c-0.7,0.6-1.3,1.2-2,1.8c-0.2,0.1-0.3,0.3-0.5,0.5c-0.5,0.4-0.9,0.9-1.4,1.3c-0.2,0.2-0.4,0.4-0.6,0.6
		c-0.5,0.5-1.1,1-1.6,1.6c-0.1,0.1-0.2,0.2-0.4,0.4c-0.6,0.6-1.2,1.2-1.7,1.8c-7,7.3-13,15.5-17.9,24.5c-0.1,0.2-0.2,0.3-0.3,0.5
		c-0.3,0.6-0.6,1.1-0.9,1.7c-0.4,0.7-0.7,1.4-1.1,2.2c-0.2,0.5-0.5,1-0.7,1.5l0,0c-0.2,0.5-0.5,1-0.7,1.5
		C4.9,80.7,1.3,94.4,0.3,108.9c0,0.5-0.1,1.1-0.1,1.6c0,0.4,0,0.8-0.1,1.2c0,0.4,0,0.9-0.1,1.3c0,0.2,0,0.5,0,0.8c0,0.2,0,0.5,0,0.7
		c0,0.8,0,1.6,0,2.4v0.2c0,1,0,2,0,2.9c0,0.9,0,1.8,0.1,2.7c0,0.2,0,0.4,0,0.6c0,0.6,0.1,1.2,0.1,1.8c0,0.4,0,0.9,0.1,1.3
		c0.1,0.8,0.1,1.6,0.2,2.3c0,0.4,0.1,0.7,0.1,1.1c0.1,0.6,0.1,1.2,0.2,1.9c0,0.2,0,0.3,0.1,0.5c0.1,0.7,0.2,1.4,0.3,2.1
		c0,0.2,0.1,0.5,0.1,0.7c0,0.2,0.1,0.5,0.1,0.7c0.1,0.6,0.2,1.3,0.3,1.9c0.3,1.9,0.7,3.7,1.1,5.5c0,0.1,0,0.1,0,0.2
		c0.2,0.8,0.4,1.5,0.5,2.3c0.1,0.4,0.2,0.8,0.3,1.1c0.2,0.7,0.4,1.4,0.6,2.1c0,0.1,0.1,0.2,0.1,0.3c0.2,0.8,0.5,1.6,0.7,2.4
		c0.1,0.2,0.1,0.4,0.2,0.5c0.2,0.7,0.5,1.5,0.7,2.2c0.2,0.7,0.5,1.4,0.8,2.2c0.2,0.5,0.4,1,0.5,1.4c0.2,0.5,0.4,1,0.5,1.4
		c0.3,0.9,0.7,1.8,1.1,2.6c0.3,0.7,0.6,1.4,0.9,2.1c0.1,0.2,0.2,0.5,0.3,0.7c0.4,0.8,0.7,1.6,1.1,2.4c0.4,0.9,0.8,1.7,1.3,2.6
		c0.4,0.9,0.9,1.7,1.3,2.5c0.5,0.8,0.9,1.7,1.4,2.5c0.5,0.8,1,1.7,1.5,2.5s1,1.7,1.5,2.5c0.8,1.2,1.6,2.5,2.5,3.7
		c0.4,0.6,0.9,1.2,1.3,1.8c0.4,0.6,0.9,1.2,1.3,1.8c0.6,0.9,1.3,1.7,2,2.5c0.1,0.2,0.2,0.3,0.4,0.5c0.5,0.6,1,1.3,1.5,1.9
		c0.2,0.3,0.4,0.5,0.7,0.8c0.5,0.6,1,1.2,1.5,1.7c0.5,0.5,1,1.1,1.5,1.6c0.5,0.5,0.9,1,1.4,1.5c1.9,2,3.9,4,6,5.9
		c0.7,0.6,1.4,1.2,2.1,1.9c0.4,0.3,0.8,0.7,1.2,1c2.5,2.1,5,4.1,7.7,6c0.8,0.5,1.5,1.1,2.3,1.6c0.8,0.5,1.6,1,2.4,1.5s1.6,1,2.4,1.5
		c0.7,0.4,1.4,0.8,2,1.2c0.4,0.2,0.8,0.5,1.3,0.7c0.4,0.2,0.7,0.4,1,0.6c0.5,0.3,1.1,0.6,1.6,0.9c0.2,0.1,0.5,0.3,0.7,0.4
		c0.8,0.4,1.5,0.8,2.3,1.2c13.6,6.7,28.6,10.8,44.5,11.8c0.1,0,0.2,0,0.4,0c0.6,0,1.1,0,1.7,0.1c0.5,0,1,0,1.4,0c0.3,0,0.5,0,0.8,0
		c0.9,0,1.8,0,2.7,0h0.1c1.3,0,2.6,0,3.8-0.1c0.5,0,1.1,0,1.6-0.1c0.6,0,1.2-0.1,1.8-0.1c0.2,0,0.5,0,0.7,0c0.7,0,1.4-0.1,2-0.2
		c0.1,0,0.1,0,0.2,0c0.5,0,1.1-0.1,1.6-0.1c0.1,0,0.3,0,0.4,0c0.9-0.1,1.8-0.2,2.8-0.3c1-0.1,2-0.3,2.9-0.4c1-0.1,1.9-0.3,2.9-0.5
		c2.9-0.5,5.7-1.1,8.4-1.8c0,0,0.1,0,0.2,0c0.8-0.2,1.6-0.4,2.4-0.6c0.2,0,0.4-0.1,0.6-0.2c0.8-0.2,1.5-0.4,2.3-0.7
		c0.1,0,0.3-0.1,0.4-0.1c0.8-0.3,1.7-0.5,2.5-0.8c0.1,0,0.2-0.1,0.4-0.1c0.6-0.2,1.3-0.4,1.9-0.7c0.4-0.1,0.9-0.3,1.3-0.5
		c0.2-0.1,0.3-0.1,0.5-0.2c0.5-0.2,1.1-0.4,1.6-0.6c1.4-0.6,2.8-1.1,4.1-1.7c0.5-0.2,1-0.5,1.5-0.7c0.6-0.3,1.2-0.6,1.8-0.9
		c0.5-0.2,0.9-0.4,1.4-0.7c0.2-0.1,0.4-0.2,0.7-0.3c0.5-0.2,1-0.5,1.4-0.7c1.3-0.7,2.6-1.4,3.8-2.1c0.6-0.3,1.2-0.7,1.8-1
		c0.6-0.4,1.2-0.7,1.8-1.1c0.6-0.4,1.2-0.7,1.8-1.1c0.6-0.4,1.2-0.8,1.8-1.1c0.5-0.3,1-0.7,1.5-1c0.1-0.1,0.3-0.2,0.4-0.3
		c0.5-0.3,1-0.7,1.4-1c1.2-0.9,2.4-1.8,3.6-2.7c0.6-0.5,1.2-0.9,1.7-1.4c1.7-1.4,3.4-2.8,5-4.3c5.1-4.7,9.9-9.8,14.1-15.4
		c3.2-4.1,6.1-8.5,8.7-13c0.5-0.8,0.9-1.6,1.4-2.5c0.1-0.1,0.1-0.2,0.2-0.3c0.4-0.7,0.8-1.5,1.2-2.2c1.2-2.3,2.3-4.7,3.3-7.1
		c0.2-0.5,0.4-1,0.6-1.5c0.1-0.2,0.2-0.5,0.3-0.7c0.2-0.5,0.4-1,0.6-1.6c3.2-8.2,5.5-16.8,6.7-25.8c0.3-2,0.5-4.1,0.7-6.1
		c0.1-0.8,0.1-1.5,0.2-2.2c0-0.3,0-0.6,0.1-0.9c0-0.7,0.1-1.4,0.1-2c0.1-1.7,0.1-3.5,0.1-5.2v-0.1C234,115.9,234,115,234,114z
		 M57.3,113.8c0-0.9,0.1-1.8,0.2-2.8c0-0.5,0.1-0.9,0.1-1.4c0.1-0.4,0.1-0.9,0.2-1.3c0,0,0-0.1,0-0.1c0.1-0.9,0.3-1.8,0.5-2.7
		c0.1-0.6,0.2-1.1,0.4-1.7c0.1-0.6,0.3-1.1,0.4-1.7c0-0.1,0-0.1,0-0.2c0.5-2.1,1.2-4.1,1.9-6.1c0.2-0.5,0.4-1,0.6-1.5
		c0-0.1,0.1-0.1,0.1-0.2c0.1-0.4,0.3-0.7,0.5-1.1c0.7-1.6,1.5-3.2,2.3-4.7c0.2-0.4,0.5-0.8,0.7-1.2c0.2-0.4,0.5-0.8,0.7-1.2
		c2-3.3,4.3-6.4,6.9-9.2c0.3-0.4,0.6-0.7,1-1.1c0.3-0.3,0.6-0.6,0.9-0.9c0.1-0.1,0.2-0.2,0.3-0.3c0.3-0.3,0.6-0.5,0.8-0.8
		c0.3-0.3,0.7-0.7,1.1-1c0.5-0.4,0.9-0.8,1.4-1.2c0.5-0.4,1-0.8,1.5-1.2c0.5-0.4,1-0.8,1.5-1.2c3.7-2.8,7.6-5,11.7-6.8
		c1.1-0.5,2.2-1,3.3-1.4c0.3-0.1,0.6-0.2,1-0.4c0.1,0,0.2-0.1,0.2-0.1c0.4-0.1,0.7-0.2,1.1-0.4c0.4-0.1,0.9-0.3,1.3-0.4
		c0.3-0.1,0.6-0.2,0.9-0.3c0.4-0.1,0.8-0.2,1.1-0.3c0.4-0.1,0.8-0.2,1.2-0.3c0.4-0.1,0.8-0.2,1.1-0.3c1-0.2,2-0.4,3-0.6
		c0.8-0.1,1.6-0.2,2.3-0.3c0.4,0,0.7-0.1,1.1-0.1c0.7-0.1,1.3-0.1,2-0.2c0.4,0,0.9-0.1,1.3-0.1c0.5,0,1.1,0,1.6-0.1c0.5,0,1,0,1.4,0
		h0c1.1,0,2.2,0,3.4,0.1c0.4,0,0.9,0,1.3,0.1c1,0.1,2.1,0.2,3.1,0.3c3.1,0.4,6.2,1.1,9.2,1.9c1.5,0.5,3,1,4.5,1.5
		c0.5,0.2,0.9,0.4,1.4,0.5c0.1,0,0.1,0,0.2,0.1c1,0.4,1.9,0.8,2.8,1.3c0.5,0.2,0.9,0.5,1.4,0.7c0.9,0.4,1.7,0.9,2.5,1.4
		c0.3,0.2,0.6,0.3,0.9,0.5c0.5,0.3,1,0.6,1.6,1c0.4,0.2,0.7,0.5,1.1,0.7c0.1,0,0.1,0.1,0.2,0.1c0.4,0.2,0.7,0.5,1.1,0.8
		c0.4,0.3,0.8,0.6,1.2,0.9c0.4,0.3,0.8,0.6,1.1,0.9c0.4,0.3,0.8,0.6,1.1,0.9c0.7,0.6,1.5,1.2,2.2,1.9c0.7,0.6,1.4,1.3,2.1,2
		c0.3,0.3,0.7,0.7,1,1c0.3,0.3,0.7,0.7,1,1.1c0.3,0.3,0.6,0.7,1,1.1c0.3,0.3,0.6,0.7,0.8,1c0.1,0.1,0.2,0.3,0.4,0.5
		c0.2,0.3,0.4,0.5,0.6,0.8l0,0c0.1,0.1,0.1,0.2,0.2,0.2c0.2,0.3,0.4,0.5,0.6,0.8c1,1.3,2,2.7,2.9,4.2c0.2,0.3,0.4,0.7,0.6,1
		c1,1.6,1.9,3.3,2.7,5c0.2,0.4,0.3,0.7,0.5,1.1c0.4,0.9,0.8,1.8,1.1,2.7c0.4,0.9,0.7,1.8,1,2.7c0.2,0.5,0.3,0.9,0.4,1.4
		c0.2,0.5,0.3,0.9,0.4,1.4c0,0,0,0,0,0.1c0.1,0.5,0.2,0.9,0.4,1.4c0.1,0.5,0.2,1,0.4,1.4c0.1,0.5,0.2,0.9,0.3,1.4
		c0.1,0.5,0.2,1,0.3,1.5c0.2,0.9,0.3,1.8,0.4,2.7c0.1,0.5,0.1,1,0.2,1.5c0,0.4,0.1,0.9,0.1,1.3c0,0.5,0.1,1,0.1,1.6
		c0,0.4,0,0.9,0.1,1.3c0,0.5,0,1,0,1.5c0,0.8,0,1.5,0,2.3c0,0.1,0,0.2,0,0.3l-2.2,14.2l0,0c-0.4,1.5-0.9,3-1.5,4.5l0,0v0
		c-0.2,0.6-0.5,1.2-0.7,1.8c0,0.1,0,0.1-0.1,0.2c-0.5,1.2-1,2.5-1.6,3.7c-0.3,0.6-0.6,1.2-0.9,1.8c-0.3,0.6-0.6,1.1-0.9,1.7
		c0,0,0,0.1-0.1,0.1c-0.3,0.5-0.6,1.1-1,1.6c-0.1,0.1-0.1,0.2-0.2,0.4c-0.3,0.5-0.6,1-1,1.5c-0.3,0.5-0.6,0.9-1,1.4
		c-0.2,0.3-0.4,0.6-0.6,0.9c-0.1,0.1-0.2,0.3-0.3,0.4c-0.2,0.3-0.4,0.6-0.7,0.9c-0.3,0.4-0.6,0.7-0.9,1.1c-0.3,0.4-0.6,0.7-0.9,1.1
		c0,0-0.1,0.1-0.1,0.1c-0.3,0.4-0.6,0.7-0.9,1c-0.3,0.4-0.6,0.7-1,1.1c-0.2,0.2-0.4,0.4-0.6,0.6c-0.4,0.4-0.7,0.7-1.1,1.1
		c-0.1,0.1-0.2,0.2-0.4,0.4c-0.4,0.4-0.9,0.8-1.3,1.2c-1.1,1-2.2,1.9-3.3,2.8c-0.2,0.2-0.5,0.4-0.8,0.6c-2.7,2.1-5.6,3.8-8.6,5.4
		c-0.1,0-0.1,0.1-0.2,0.1c-1,0.5-1.9,1-2.9,1.4c-1.1,0.5-2.2,1-3.3,1.4c-0.4,0.1-0.8,0.3-1.1,0.4c-0.4,0.1-0.8,0.3-1.1,0.4
		s-0.8,0.2-1.1,0.4c-0.8,0.2-1.5,0.5-2.3,0.7c-0.4,0.1-0.8,0.2-1.2,0.3c-0.4,0.1-0.8,0.2-1.1,0.3c-1,0.2-2,0.4-3,0.6
		c-0.8,0.1-1.6,0.2-2.3,0.3c-0.4,0-0.7,0.1-1.1,0.1c-0.7,0.1-1.3,0.1-2,0.2c-0.4,0-0.9,0.1-1.3,0.1c-0.5,0-1.1,0-1.6,0.1
		c-0.5,0-1,0-1.4,0h-0.1c-0.5,0-0.9,0-1.4,0c-0.8,0-1.6-0.1-2.4-0.1c-0.3,0-0.7,0-1-0.1c-0.8-0.1-1.6-0.1-2.4-0.2
		c-0.4,0-0.8-0.1-1.2-0.2c-4.5-0.6-8.8-1.8-13.1-3.4c-0.4-0.2-0.8-0.3-1.1-0.5c-0.4-0.2-0.8-0.3-1.1-0.5c-0.8-0.3-1.5-0.7-2.2-1
		c-0.7-0.4-1.5-0.7-2.2-1.1c-0.3-0.2-0.6-0.3-0.9-0.5c-0.2-0.1-0.4-0.2-0.6-0.4c-0.4-0.2-0.7-0.4-1.1-0.6c-0.4-0.3-0.9-0.6-1.3-0.8
		c-0.4-0.2-0.7-0.5-1.1-0.7c-0.4-0.3-0.9-0.6-1.3-0.9c-0.4-0.3-0.8-0.6-1.2-0.9c-0.4-0.3-0.8-0.6-1.1-0.9c-0.4-0.3-0.8-0.6-1.1-0.9
		c-2.6-2.1-5-4.5-7.2-7c0-0.1-0.1-0.1-0.2-0.2c-0.1-0.1-0.1-0.1-0.2-0.2c-0.1-0.1-0.2-0.2-0.2-0.3c-0.3-0.4-0.6-0.8-1-1.2
		c-0.4-0.5-0.8-1-1.1-1.5c-0.9-1.2-1.7-2.4-2.5-3.6c-0.2-0.3-0.4-0.7-0.6-1c-0.4-0.7-0.9-1.4-1.3-2.2c-0.2-0.3-0.4-0.6-0.5-0.9
		c-0.8-1.6-1.6-3.2-2.3-4.8c-0.2-0.4-0.4-0.9-0.5-1.4c-0.2-0.4-0.4-0.9-0.5-1.3c-0.2-0.6-0.4-1.2-0.6-1.9c-0.1-0.3-0.2-0.6-0.3-1
		c-0.2-0.5-0.3-0.9-0.4-1.4c-0.1-0.5-0.3-0.9-0.4-1.4c-0.2-1-0.5-1.9-0.7-2.9c-0.1-0.5-0.2-1-0.3-1.5c-0.2-1-0.3-2-0.4-3
		c-0.1-0.9-0.2-1.8-0.3-2.6c0-0.2,0-0.4,0-0.7c0-0.4-0.1-0.8-0.1-1.2c0-1-0.1-2-0.1-2.9c0-0.6,0-1.1,0-1.7c0-0.1,0-0.2,0-0.3
		C57.3,114.7,57.3,114.3,57.3,113.8z"></path>
	<g>
		<path fill="#FFFFFF" d="M59.1,102.2c-0.1,0.6-0.3,1.1-0.4,1.7C58.8,103.3,58.9,102.8,59.1,102.2z" data-darkreader-inline-fill="" style="--darkreader-inline-fill:#ffffff;"></path>
		<path fill="#FFFFFF" d="M61,95.9c-0.7,2-1.4,4-1.9,6.1C59.7,100,60.3,97.9,61,95.9z" data-darkreader-inline-fill="" style="--darkreader-inline-fill:#ffffff;"></path>
		<path fill="#FFFFFF" d="M58.6,104.3c0-0.1,0.1-0.2,0.1-0.4c-0.1,0.6-0.3,1.1-0.4,1.7C58.4,105.2,58.5,104.7,58.6,104.3z" data-darkreader-inline-fill="" style="--darkreader-inline-fill:#ffffff;"></path>
		<path fill="#FFFFFF" d="M59.1,102.1c0,0.1,0,0.1,0,0.2C59.1,102.2,59.1,102.1,59.1,102.1z" data-darkreader-inline-fill="" style="--darkreader-inline-fill:#ffffff;"></path>
		<path fill="#FFFFFF" d="M92.8,62.3c-4,1.8-8,4.1-11.7,6.8C84.8,66.4,88.7,64.1,92.8,62.3z" data-darkreader-inline-fill="" style="--darkreader-inline-fill:#ffffff;"></path>
		<path fill="#FFFFFF" d="M95.4,172.8c4.2,1.6,8.6,2.8,13.1,3.4C103.9,175.5,99.6,174.4,95.4,172.8z" data-darkreader-inline-fill="" style="--darkreader-inline-fill:#ffffff;"></path>
		<path fill="#FFFFFF" d="M107.2,58c-1,0.2-2,0.4-3,0.6C105.1,58.4,106.2,58.2,107.2,58z" data-darkreader-inline-fill="" style="--darkreader-inline-fill:#ffffff;"></path>
		<path fill="#FFFFFF" d="M124.8,57.7c3.1,0.4,6.2,1.1,9.2,1.9C131,58.8,127.9,58.1,124.8,57.7z" data-darkreader-inline-fill="" style="--darkreader-inline-fill:#ffffff;"></path>
		<path fill="#FFFFFF" d="M126.8,176c1-0.2,2-0.4,3-0.6C128.9,175.6,127.9,175.8,126.8,176z" data-darkreader-inline-fill="" style="--darkreader-inline-fill:#ffffff;"></path>
		<path fill="#FFFFFF" d="M134,59.7c1.5,0.4,3,0.9,4.5,1.5C137,60.6,135.5,60.1,134,59.7z" data-darkreader-inline-fill="" style="--darkreader-inline-fill:#ffffff;"></path>
		<path fill="#FFFFFF" d="M156.9,161.5c-3.8,3.4-8.1,6.4-12.7,8.7c2.9-1.5,5.8-3.3,8.6-5.4c0.3-0.2,0.5-0.4,0.8-0.6
			C154.8,163.4,155.9,162.4,156.9,161.5z" data-darkreader-inline-fill="" style="--darkreader-inline-fill:#ffffff;"></path>
		<path fill="#FFFFFF" d="M144.3,170.2c-0.1,0-0.1,0.1-0.2,0.1C144.2,170.3,144.2,170.2,144.3,170.2z" data-darkreader-inline-fill="" style="--darkreader-inline-fill:#ffffff;"></path>
		<path fill="#FFFFFF" d="M141.2,171.7c1-0.4,2-0.9,2.9-1.4C143.1,170.8,142.2,171.3,141.2,171.7z" data-darkreader-inline-fill="" style="--darkreader-inline-fill:#ffffff;"></path>
		<path fill="#FFFFFF" d="M163.4,79.3c0.2,0.3,0.4,0.5,0.6,0.8l0,0C163.8,79.9,163.6,79.6,163.4,79.3z" data-darkreader-inline-fill="" style="--darkreader-inline-fill:#ffffff;"></path>
		<path fill="#FFFFFF" d="M170.7,143.2c0.6-1.2,1.1-2.4,1.6-3.7C171.9,140.8,171.3,142,170.7,143.2z" data-darkreader-inline-fill="" style="--darkreader-inline-fill:#ffffff;"></path>
		<path fill="#FFFFFF" d="M176.8,118.9c0,0.4,0,0.8,0,1.2c0,0.4,0,0.7-0.1,1.1c0,0.3,0,0.6-0.1,0.9c-0.1,0.7-0.1,1.5-0.2,2.2
			c0,0.4-0.1,0.8-0.2,1.2c0,0.2,0,0.4-0.1,0.6c-0.1,0.6-0.2,1.1-0.3,1.7c-0.1,0.6-0.2,1.2-0.4,1.8c-0.1,0.6-0.3,1.2-0.4,1.8
			c-0.1,0.6-0.3,1.3-0.5,1.9c-0.4,1.5-0.9,3-1.4,4.4c0,0,0,0,0,0c-0.2,0.6-0.4,1.2-0.7,1.8c0.2-0.6,0.5-1.2,0.7-1.8v0l0,0
			c0.5-1.5,1-3,1.5-4.5l0,0L176.8,118.9z" data-darkreader-inline-fill="" style="--darkreader-inline-fill:#ffffff;"></path>
	</g>
</g>
</svg>